<?xml version="1.0" encoding="utf-8"?>
<!-- Generator: Adobe Illustrator 19.1.0, SVG Export Plug-In . SVG Version: 6.00 Build 0)  -->
<svg version="1.1" id="Layer_1" xmlns="http://www.w3.org/2000/svg" xmlns:xlink="http://www.w3.org/1999/xlink" x="0px" y="0px"
	 viewBox="0 0 471.3 127.6" style="enable-background:new 0 0 471.3 127.6;" xml:space="preserve">
<style type="text/css">
	.st0{fill:#7D2E52;}
	.st1{opacity:0.1;}
	.st2{opacity:0.2;}
	.st3{fill:#FFFFFF;}
	.st4{font-family:'Impact';}
	.st5{font-size:41.2788px;}
</style>
<polygon class="st0" points="432.8,42.5 471,0.9 471,0 351,0 351,85 471.3,85 "/>
<polygon class="st0" points="38.4,43.5 0,1.9 0,1 120,1 120,86 0,86 "/>
<polygon class="st1" points="38.4,43.5 0,1.9 0,1 120,1 120,86 0,86 "/>
<polygon class="st1" points="432.8,42.5 471,0.9 471,0 351,0 351,85 471.3,85 "/>
<rect x="61.3" y="42.6" class="st0" width="350" height="85"/>
<polygon class="st2" points="411.3,42.8 351,0 351,43 "/>
<polygon class="st2" points="59.7,42.8 120,0 120,43 "/>
<text transform="matrix(1.0415 0 0 1 89.7628 104.2041)" class="st3 st4 st5">LOGO &amp; BRANDING</text>
</svg>
