<?xml version="1.0" encoding="utf-8"?>
<!-- Generator: Adobe Illustrator 19.1.0, SVG Export Plug-In . SVG Version: 6.00 Build 0)  -->
<svg version="1.1" id="Layer_1" xmlns="http://www.w3.org/2000/svg" xmlns:xlink="http://www.w3.org/1999/xlink" x="0px" y="0px"
	 viewBox="-219 221 60 60" style="enable-background:new -219 221 60 60;" xml:space="preserve">
<style type="text/css">
	.st0{fill:#FFFFFF;}
	.st1{fill:#A08F60;}
</style>
<g id="XMLID_23_">
	<circle id="XMLID_31_" class="st0" cx="-189" cy="251" r="26.7"/>
	<path id="XMLID_24_" class="st1" d="M-189,221c-16.6,0-30,13.4-30,30s13.4,30,30,30s30-13.4,30-30S-172.4,221-189,221z M-182.6,251
		h-4.2c0,6.7,0,15,0,15h-6.2c0,0,0-8.2,0-15h-3v-5.3h3v-3.4c0-2.5,1.2-6.3,6.3-6.3h4.6v5.1c0,0-2.8,0-3.3,0s-1.3,0.3-1.3,1.4v3.1
		h4.7L-182.6,251z"/>
</g>
</svg>
