<?xml version="1.0" encoding="utf-8"?>
<!-- Generator: Adobe Illustrator 19.1.0, SVG Export Plug-In . SVG Version: 6.00 Build 0)  -->
<svg version="1.1" id="Layer_1" xmlns="http://www.w3.org/2000/svg" xmlns:xlink="http://www.w3.org/1999/xlink" x="0px" y="0px"
	 viewBox="-219 221 60 60" style="enable-background:new -219 221 60 60;" xml:space="preserve">
<style type="text/css">
	.st0{fill:#FFFFFF;}
	.st1{fill:#A08F60;}
</style>
<g id="XMLID_33_">
	<circle id="XMLID_50_" class="st0" cx="-189" cy="251" r="26.7"/>
	<path id="XMLID_34_" class="st1" d="M-189,221c-16.6,0-30,13.4-30,30s13.4,30,30,30s30-13.4,30-30S-172.4,221-189,221z M-200,266
		c-2.2,0-4-1.8-4-4s1.8-4,4-4s4,1.8,4,4S-197.8,266-200,266z M-190,266c0-3.8-1.5-7.3-4.1-9.9c-2.6-2.7-6.1-4.1-9.9-4.1v-5.7
		c10.9,0,19.7,8.9,19.7,19.8h-5.7V266z M-179.8,266c0-13.4-10.8-24.3-24.1-24.3V236c16.5,0,29.9,13.5,29.9,30H-179.8z"/>
</g>
</svg>
