<?xml version="1.0" encoding="utf-8"?>
<!-- Generator: Adobe Illustrator 19.1.0, SVG Export Plug-In . SVG Version: 6.00 Build 0)  -->
<svg version="1.1" id="Layer_1" xmlns="http://www.w3.org/2000/svg" xmlns:xlink="http://www.w3.org/1999/xlink" x="0px" y="0px"
	 viewBox="0 0 302.1 288.8" style="enable-background:new 0 0 302.1 288.8;" xml:space="preserve">
<style type="text/css">
	.st0{fill:#6C7A7A;}
	.st1{fill:#212F3F;}
	.st2{font-family:'FuturistFixedWidth-Regular';}
	.st3{font-size:27.8875px;}
	.st4{letter-spacing:2;}
</style>
<g>
	<path class="st0" d="M148.8,133.7c-0.1-7.1-4-13.8-10.2-17.3L41.8,61.6v32.6l31.6,17.5v98.7l30.3,16.7v-97.6l45.4,25.1L148.8,133.7
		z"/>
	<path class="st1" d="M243.7,48.9L160.7,3c-7.4-4.1-16.5-3.9-23.9,0.4l-12.8,7.7l94.1,53.2c9.2,5.2,15,15,15.1,25.6l0.6,73.7
		l-9.1,5.4l-0.6-79c-0.1-7.3-4.1-14.1-10.4-17.7l-98.7-55.8l0,0L87.5,32.9l0,0l93.2,52.7c9.2,5.2,14.9,14.9,15,25.4l0.7,74.3
		l-9.1,5.4l-0.7-79.6c-0.1-7.3-4-14-10.4-17.6L78.5,38.2L49.8,55.4l-0.5,0.3l93.7,53c9,5.1,14.6,14.7,14.7,25l0.9,100.7v0.6l0,0l0,0
		l0.9-0.6l84.1-49.6c7.4-4.4,12-12.3,12-20.7l0-94.9C255.7,60.7,251.1,53,243.7,48.9z"/>
</g>
<text transform="matrix(1 0 0 1 13.0088 276.5304)"><tspan x="0" y="0" class="st0 st2 st3 st4">TEAM </tspan><tspan x="153.4" y="0" class="st1 st2 st3 st4">WORK</tspan></text>
</svg>
